<svg width="39" height="40" viewBox="0 0 39 40" fill="none" xmlns="http://www.w3.org/2000/svg">
<g clip-path="url(#clip0_1790_5427)">
<path d="M29.5669 31.0127C29.2455 31.0127 28.9402 31.0446 28.6188 31.0446C28.2974 31.0446 27.9921 31.0446 27.6707 31.0127C25.0354 30.9328 22.9142 30.5817 21.3876 30.039C20.6806 29.7996 20.0539 29.5282 19.5879 29.209V31.7469V31.9384V32.13V32.5929C20.6163 33.6463 24.0391 34.636 28.6188 34.636C33.1664 34.636 36.6052 33.6623 37.6497 32.5929V32.13V31.9384V31.7469V29.209C37.1837 29.5282 36.557 29.8315 35.8339 30.039C34.3234 30.5657 32.2344 30.9328 29.5669 31.0127Z" fill="#F3C848"/>
<path d="M19.6191 24.5176V27.0555V27.247V27.4386V27.9015C20.5672 28.8911 23.5882 29.7849 27.6698 29.9286C27.718 29.9286 27.7502 29.9286 27.7984 29.9286C27.9109 29.9286 28.0394 29.9286 28.1519 29.9286C28.3126 29.9286 28.4733 29.9286 28.634 29.9286C28.7947 29.9286 28.9554 29.9286 29.1161 29.9286C29.2285 29.9286 29.3571 29.9286 29.4696 29.9286C29.5178 29.9286 29.5499 29.9286 29.5981 29.9286C33.6476 29.8009 36.7007 28.8751 37.6488 27.9015V27.4386V27.247V27.0555V24.5176C35.8812 25.6987 32.1853 26.3532 28.6179 26.3532C25.0827 26.3532 21.3868 25.7147 19.6191 24.5176Z" fill="#F3C848"/>
<path d="M37.6182 22.2342C37.2164 20.7019 34.1151 19.1855 28.6516 19.1855C23.2202 19.1855 20.1188 20.7019 19.6849 22.2342C19.6528 22.2821 19.6367 22.346 19.6367 22.3938V22.5854V23.2398C20.6651 24.2933 24.0718 25.2829 28.6676 25.2829C33.2634 25.2829 36.654 24.3092 37.6985 23.2398V22.5854V22.3938C37.6664 22.346 37.6342 22.2821 37.6182 22.2342Z" fill="#F3C848"/>
<path d="M19.6191 33.8535V36.7905C19.6191 36.8384 19.6513 36.9022 19.6673 36.9501C20.1012 38.7059 23.9096 39.9988 28.634 39.9988C33.3583 39.9988 37.1667 38.7059 37.6006 36.9501C37.6327 36.9022 37.6488 36.8384 37.6488 36.7905V33.8535C36.1544 34.907 33.0852 35.721 28.6179 35.721C24.1828 35.7051 21.1136 34.907 19.6191 33.8535Z" fill="#F3C848"/>
<path d="M36.976 10.4072C37.2492 9.78472 37.6509 9.2101 38.133 8.69932C37.6027 8.01297 37.0242 7.35854 36.3814 6.73604C35.8511 6.2093 35.3048 5.71449 34.7263 5.26756C32.8462 7.08719 30.0823 7.47027 27.8165 6.4168C27.7201 6.38488 27.6237 6.32103 27.5273 6.28911C26.997 6.01776 26.5149 5.65064 26.065 5.21968C24.8437 4.00659 24.2492 2.41042 24.2652 0.830212C24.1045 0.81425 23.9438 0.798289 23.7831 0.782327V0.766365C23.526 0.734442 23.2529 0.71848 22.9958 0.702519C22.9475 0.702519 22.9154 0.702519 22.8672 0.686557C22.4333 0.654634 22.0155 0.638672 21.5817 0.638672H21.5656H21.5495C21.1157 0.638672 20.6979 0.654634 20.264 0.686557C20.2318 0.686557 20.2158 0.686557 20.1836 0.686557C19.8462 0.702519 19.5087 0.734442 19.1713 0.766365V0.782327C19.0909 0.782327 19.0267 0.798289 18.9463 0.798289C18.882 4.11832 16.1503 6.78392 12.7918 6.78392C11.1688 6.78392 9.67437 6.14545 8.58166 5.12391C8.58166 5.12391 8.58166 5.12391 8.56559 5.13987L8.54952 5.12391C7.92282 5.61872 7.31219 6.16142 6.71763 6.752C6.13914 7.32662 5.59279 7.93316 5.09464 8.57163C5.04643 8.61952 5.0143 8.68336 4.96609 8.73125C5.99452 9.8326 6.65336 11.317 6.65336 12.9451C6.65336 16.2332 4.03407 18.9148 0.755951 19.0585C0.659536 19.8565 0.611328 20.6706 0.611328 21.4846C0.611328 22.3146 0.659536 23.1127 0.755951 23.9108C4.03407 24.0385 6.65336 26.736 6.65336 30.0241C6.65336 31.6522 6.01059 33.1207 4.98216 34.2061C5.0625 34.3178 5.15892 34.4296 5.25533 34.5253C5.23926 34.5413 5.23926 34.5413 5.22319 34.5573C5.6892 35.1159 6.17128 35.6746 6.70156 36.2013C7.32826 36.8238 7.9871 37.3984 8.67808 37.9411C10.6064 36.1055 13.4346 35.7544 15.7164 36.9036C15.9092 36.9994 16.086 37.1111 16.2627 37.2388V31.7799C15.1861 31.2372 14.1898 30.519 13.3382 29.673C11.2331 27.582 9.93148 24.6929 9.93148 21.5006C9.93148 18.3083 11.2331 15.4192 13.3382 13.3282C15.4432 11.2372 18.3357 9.94434 21.5495 9.94434C21.662 9.94434 21.7906 9.9603 21.903 9.9603C22.1602 9.9603 22.4333 9.97626 22.6904 10.0082C22.9797 10.0401 23.2689 10.088 23.5421 10.1359C23.6225 10.1518 23.7028 10.1518 23.7831 10.1678C24.1688 10.2476 24.5384 10.3434 24.9241 10.4551C26.6917 10.9818 28.3629 11.9395 29.7609 13.3282C30.7572 14.3178 31.5285 15.4352 32.0909 16.6323H37.6187C36.3011 14.7967 36.0761 12.4024 36.976 10.4072Z" fill="#033359"/>
<path d="M8.77379 38.7709L8.33992 38.4358C7.63288 37.8931 6.9419 37.2865 6.29913 36.648C5.75278 36.1053 5.23857 35.5467 4.77256 34.9561L4.40297 34.5092L4.4351 34.4773L4.178 34.158L4.54759 33.759C5.51174 32.7374 6.04203 31.4126 6.04203 30.008C6.04203 27.0551 3.72806 24.6608 0.755253 24.5331L0.2089 24.5172L0.144623 23.9745C0.0482076 23.1285 0 22.2985 0 21.4685C0 20.6385 0.0482076 19.7925 0.144623 18.9625L0.2089 18.4198L0.755253 18.4038C3.71199 18.2761 6.04203 15.8819 6.04203 12.929C6.04203 11.5403 5.49567 10.1995 4.53152 9.16201L4.16193 8.76297L4.53152 8.28412C4.56366 8.23623 4.5958 8.20431 4.62793 8.15642C5.14215 7.502 5.70457 6.87949 6.29913 6.28891C6.89369 5.69832 7.52039 5.13966 8.17923 4.61293L8.70952 4.19792L9.0309 4.62889L9.06304 4.66081C10.0915 5.61852 11.4252 6.14525 12.8393 6.14525C15.8121 6.14525 18.2868 3.73504 18.351 0.782123L18.3671 0.239425L19.1545 0.127694C19.4598 0.0957702 19.7812 0.0638468 20.199 0.0478851H20.2151C20.2311 0.0478851 20.2633 0.0478851 20.2794 0.0478851C20.7614 0.0159617 21.1953 0 21.597 0H21.6452C22.047 0 22.4648 0.0159617 22.9629 0.0478851H22.9951C23.0272 0.0478851 23.0433 0.0478851 23.0754 0.0478851L23.3004 0.0638468C23.5093 0.0798085 23.7182 0.0957702 23.911 0.111732L24.4895 0.175579V0.19154L24.9716 0.255387V0.830008C24.9555 2.31445 25.534 3.71907 26.5785 4.75658C26.9641 5.13966 27.3819 5.4589 27.864 5.69832C27.9122 5.71429 27.9444 5.73025 27.9926 5.76217C28.0247 5.77813 28.0569 5.79409 28.1051 5.81006L29.0371 6.16121C30.9011 6.65603 32.9258 6.16121 34.3239 4.80447L34.7256 4.40543L35.1755 4.75658C35.7701 5.23543 36.3325 5.74621 36.8789 6.27294C37.5216 6.91141 38.1162 7.5818 38.6786 8.30008L39.0161 8.73105L38.6304 9.13009C38.1965 9.57701 37.843 10.0878 37.5859 10.6624C36.7503 12.482 36.9913 14.6049 38.1965 16.2011L38.9679 17.2227H31.7367L31.5599 16.8555C31.0136 15.6903 30.2744 14.6369 29.3585 13.7271C28.089 12.4661 26.5142 11.5243 24.7948 11.0136C24.4413 10.9018 24.0878 10.822 23.7182 10.7422C23.686 10.7422 23.6378 10.7263 23.6057 10.7263C23.5735 10.7263 23.5253 10.7103 23.4932 10.7103C23.2522 10.6624 22.9629 10.6145 22.6737 10.5986C22.4326 10.5826 22.1595 10.5666 21.9345 10.5666C21.8863 10.5666 21.822 10.5666 21.7738 10.5507C21.7095 10.5507 21.6613 10.5507 21.597 10.5507C18.6724 10.5507 15.9085 11.684 13.8356 13.743C11.7627 15.8021 10.6218 18.5475 10.6218 21.4685C10.6218 24.3895 11.7627 27.1349 13.8356 29.1939C14.6551 30.008 15.5711 30.6784 16.5995 31.1891L16.953 31.3647V38.4358L15.9407 37.7494C15.796 37.6536 15.6354 37.5579 15.4747 37.4621C13.3857 36.4246 10.8628 36.7917 9.19159 38.3879L8.77379 38.7709ZM6.12237 34.589C6.45983 34.988 6.82942 35.3711 7.19901 35.7382C7.68109 36.2171 8.17923 36.664 8.70952 37.095C10.6539 35.5307 13.3375 35.1476 15.6675 36.1373V32.1309C14.6712 31.5882 13.7553 30.9018 12.9357 30.0878C10.6218 27.7893 9.33622 24.7247 9.33622 21.4685C9.33622 18.2123 10.6057 15.1476 12.9357 12.8492C15.2336 10.5347 18.3189 9.27374 21.597 9.27374C21.6774 9.27374 21.7738 9.27374 21.8541 9.2897C21.9023 9.2897 21.9345 9.2897 21.9827 9.2897C22.2237 9.2897 22.513 9.30567 22.8022 9.33759C23.1397 9.36951 23.445 9.4174 23.7182 9.46528C23.7503 9.46528 23.7664 9.48125 23.7985 9.48125C23.8628 9.49721 23.911 9.49721 23.9753 9.51317C24.377 9.59298 24.7948 9.68875 25.1805 9.81644C27.0927 10.3911 28.8603 11.4445 30.2744 12.8492C31.2064 13.7749 31.9617 14.8124 32.5562 15.9777H36.5414C35.6255 14.174 35.5612 12.0351 36.4289 10.1676C36.67 9.64086 36.9753 9.14605 37.3449 8.69912C36.911 8.17239 36.4611 7.67757 35.979 7.19872C35.5933 6.81564 35.2077 6.46449 34.8059 6.11333C32.7973 7.74142 29.9852 8.09258 27.6069 6.99122L26.7713 6.60814L26.8195 6.56026C26.4178 6.30487 26.0321 6.0016 25.6947 5.65044C24.5377 4.5012 23.8467 3.0008 23.7182 1.38867L23.2682 1.34078C23.2522 1.34078 23.2361 1.34078 23.22 1.34078L23.0272 1.32482C22.979 1.32482 22.9308 1.32482 22.8986 1.30886C22.4326 1.27694 22.047 1.26097 21.6774 1.26097C21.6613 1.26097 21.6452 1.26097 21.6292 1.26097L21.5328 1.27694C21.1632 1.27694 20.7614 1.2929 20.3436 1.32482H20.3276C20.3115 1.32482 20.2794 1.32482 20.2633 1.32482C20.0544 1.34078 19.8616 1.35674 19.6848 1.37271L19.5884 1.38867C19.2349 4.77255 16.3103 7.43815 12.8232 7.43815C11.2645 7.43815 9.78615 6.91141 8.58096 5.95371C8.09889 6.35275 7.64895 6.76776 7.21508 7.19872C6.733 7.67757 6.267 8.17239 5.8492 8.69912C6.81335 9.91221 7.34363 11.3807 7.34363 12.929C7.34363 16.3767 4.77256 19.2179 1.38195 19.6329C1.33375 20.2554 1.30161 20.8619 1.30161 21.4685C1.30161 22.075 1.33375 22.6975 1.38195 23.3041C4.77256 23.7191 7.34363 26.5603 7.34363 30.008C7.34363 31.5403 6.82942 33.0088 5.86526 34.2059L6.15451 34.573L6.12237 34.589ZM21.6774 0C21.6774 0.0159617 21.6774 0.0159617 21.6774 0V0Z" fill="white"/>
</g>
<defs>
<clipPath id="clip0_1790_5427">
<rect width="39" height="40" fill="white"/>
</clipPath>
</defs>
</svg>
